<svg width="74" height="29" viewBox="0 0 74 29" fill="none" xmlns="http://www.w3.org/2000/svg"><g id="cm 1" clip-path="url(#clip0_1125_7320)"><path id="Vector" d="M54.0463 4.31938C54.7194 4.31938 57.7347 0.5 62.7424 0.5C68.8271 0.5 71.0348 4.24035 71.0348 10.1143C71.0348 14.0127 70.3886 18.596 70.3886 20.5452C70.3886 21.8622 70.7925 23.2319 71.6541 23.9694C72.5964 24.8387 73.4579 25.023 73.4579 26.2874C73.4579 27.341 72.6771 28.0522 70.981 28.0522C69.4463 28.0522 67.804 27.8941 66.3771 27.8941C64.4117 27.8941 63.8733 28.0522 61.854 28.0522C60.6156 28.0522 60.1309 27.2884 60.1309 26.3928C60.1309 25.1548 60.5348 24.1275 60.7771 23.4689C61.3155 21.9676 61.8001 17.1999 61.8001 13.0381C61.8001 8.56021 60.4809 6.58467 58.0848 6.58467C56.8463 6.58467 54.5578 7.76999 54.5578 11.1679C54.5578 15.04 54.4771 18.596 54.4771 20.5452C54.4771 21.8622 54.5848 23.1792 55.3655 23.9694C56.254 24.8387 56.9539 25.023 56.9539 26.2874C56.9539 27.341 56.2001 28.0522 54.504 28.0522C52.9424 28.0522 51.7578 27.8941 50.3309 27.8941C48.3655 27.8941 47.827 28.0522 45.8078 28.0522C44.5693 28.0522 44.0847 27.2884 44.0847 26.3928C44.0847 25.1548 44.5155 24.1275 44.7308 23.4689C45.2693 21.9676 45.7001 17.1999 45.7001 13.0381C45.7001 8.56021 44.3809 6.58467 41.9847 6.58467C40.6655 6.58467 38.4577 7.92803 38.4577 10.9835V19.7022C38.4577 22.0202 38.5924 22.8894 39.3463 23.8114C40.1001 24.7333 40.9885 24.944 40.9885 26.2874C40.9885 27.341 40.3962 28.0522 38.754 28.0522C37.1385 28.0522 35.6308 27.8941 34.177 27.8941C32.2654 27.8941 30.4077 28.0522 28.3078 28.0522C26.9885 28.0522 26.5039 27.2884 26.5039 26.3928C26.5039 25.1021 27.5539 24.3909 28.0116 23.8377C29.3039 22.2046 29.4655 20.6505 29.4655 19.2808V9.69285C29.4655 7.98071 28.5231 7.26952 27.877 6.9271C27.4193 6.63735 26.7193 6.26858 26.7193 5.34666C26.7193 3.81891 28.7654 3.58184 31.1347 2.52822C34.2039 1.15851 34.6885 0.579023 35.6578 0.579023C36.8424 0.579023 37.5155 1.02681 37.9193 2.60725C38.1078 3.45014 38.2962 4.24036 38.6732 4.24036C39.3193 4.24036 42.227 0.5 46.6693 0.5C49.4963 0.5 51.4617 1.44826 52.8348 3.10772C53.454 3.84525 53.6962 4.31938 54.0463 4.31938Z" fill="black"/><path id="Vector_2" d="M0.5 15.04C0.5 7.29586 5.75002 0.5 14.7693 0.5C20.1001 0.5 24.4077 3.02869 24.4077 7.1905C24.4077 10.0353 22.4693 12.2215 18.8885 12.2215C17.5693 12.2215 16.8962 11.6947 16.5731 10.1934C16.0616 8.05974 15.4962 4.97789 13.0731 4.97789C10.7308 4.97789 9.43852 7.61195 9.43852 10.9309C9.43852 16.0673 12.3193 20.229 17.4885 20.229C21.0962 20.229 22.9001 18.3062 23.977 17.3053C24.327 17.0418 24.6501 16.8048 24.9732 16.8048C25.8347 16.8048 25.9962 17.7267 25.9962 18.7013C25.9962 23.3109 21.4193 28.5 14.0423 28.5C5.69617 28.5 0.5 22.6261 0.5 15.04Z" fill="black"/></g><defs><clipPath id="clip0_1125_7320"><rect width="73" height="28" fill="white" transform="translate(0.5 0.5)"/></clipPath></defs></svg>